<?xml version="1.0" encoding="UTF-8" standalone="no"?>
<svg
  xmlns="http://www.w3.org/2000/svg"
  width="118"
  height="46"
  viewBox="0 0 118 46"
  fill="none"
  version="1.1"
  id="svg8"
>
  <defs
    id="defs12">
    <style
      id="style2">
      .cls-1 {
      fill: #1a1a1a;
      }

      .cls-1, .cls-2 {
      stroke-width: 0px;
      }

      .cls-2 {
      fill: #d4ff00;
      }
    </style>
  </defs>
  <path
    d="M48.9 12.4983H39.1V36.9983H48.9C55.655 36.9983 60.8 31.6783 60.8 24.7483C60.8 17.8183 55.655 12.4983 48.9 12.4983ZM48.9 31.6083H44.7V17.8883H48.9C52.75 17.8883 55.41 20.5483 55.41 24.7483C55.41 28.9483 52.75 31.6083 48.9 31.6083ZM72.1736 37.4883C77.3186 37.4883 81.4486 33.4633 81.4486 28.2483C81.4486 23.0333 77.3186 19.0083 72.1736 19.0083C67.0286 19.0083 62.8986 23.0333 62.8986 28.2483C62.8986 33.4633 67.0286 37.4883 72.1736 37.4883ZM72.1736 32.3783C69.8986 32.3783 68.1486 30.7333 68.1486 28.2483C68.1486 25.7633 69.8986 24.1183 72.1736 24.1183C74.4486 24.1183 76.1986 25.7633 76.1986 28.2483C76.1986 30.7333 74.4486 32.3783 72.1736 32.3783ZM92.8182 37.4883C96.2482 37.4883 99.2232 35.7033 100.728 32.9733L96.1432 30.3483C95.5832 31.5733 94.2882 32.3083 92.7482 32.3083C90.4732 32.3083 88.7932 30.6633 88.7932 28.2483C88.7932 25.8333 90.4732 24.1883 92.7482 24.1883C94.2882 24.1883 95.5482 24.9233 96.1432 26.1483L100.728 23.4883C99.2232 20.7933 96.2132 19.0083 92.8182 19.0083C87.4982 19.0083 83.5432 23.0333 83.5432 28.2483C83.5432 33.4633 87.4982 37.4883 92.8182 37.4883ZM107.811 24.6083C107.811 23.9783 108.371 23.6283 109.281 23.6283C110.436 23.6283 111.136 24.2583 111.626 25.1683L116.106 22.7533C114.636 20.2683 112.116 19.0083 109.281 19.0083C105.641 19.0083 102.421 20.9333 102.421 24.7483C102.421 30.8033 111.031 29.7883 111.031 31.7133C111.031 32.4133 110.401 32.7983 109.141 32.7983C107.601 32.7983 106.621 32.0633 106.166 30.7333L101.616 33.3233C102.981 36.1583 105.641 37.4883 109.141 37.4883C112.921 37.4883 116.421 35.7733 116.421 31.7483C116.421 25.2733 107.811 26.6033 107.811 24.6083Z"
    fill="white"
    id="path6" />
  <g
    id="g10"
    transform="matrix(0.21918929,0,0,0.21918929,-19.314294,-11.135526)">
    <rect
      class="cls-2"
      x="98.529999"
      y="77.949997"
      width="141.73"
      height="141.73"
      id="rect6" />
    <polygon
      class="cls-1"
      points="169.4,120.56 169.4,101.73 207.07,101.73 207.07,195.91 188.23,195.91 188.23,177.07 131.72,177.07 131.72,120.56 150.56,120.56 150.56,139.4 188.23,139.4 188.23,120.56 "
      id="polygon8" />
  </g>
</svg>
